<?xml version="1.0" encoding="utf-8" standalone="no"?>
<!DOCTYPE svg PUBLIC "-//W3C//DTD SVG 1.1//EN"
  "http://www.w3.org/Graphics/SVG/1.1/DTD/svg11.dtd">
<svg xmlns:xlink="http://www.w3.org/1999/xlink" width="460.8pt" height="259.2pt" viewBox="0 0 460.8 259.2" xmlns="http://www.w3.org/2000/svg" version="1.1">
 <metadata>
  <rdf:RDF xmlns:dc="http://purl.org/dc/elements/1.1/" xmlns:cc="http://creativecommons.org/ns#" xmlns:rdf="http://www.w3.org/1999/02/22-rdf-syntax-ns#">
   <cc:Work>
    <dc:type rdf:resource="http://purl.org/dc/dcmitype/StillImage"/>
    <dc:date>2026-09-20T19:21:21.511230</dc:date>
    <dc:format>image/svg+xml</dc:format>
    <dc:creator>
     <cc:Agent>
      <dc:title>Matplotlib v3.10.8, https://matplotlib.org/</dc:title>
     </cc:Agent>
    </dc:creator>
   </cc:Work>
  </rdf:RDF>
 </metadata>
 <defs>
  <style type="text/css">*{stroke-linejoin: round; stroke-linecap: butt}</style>
 </defs>
 <g id="figure_1">
  <g id="patch_1">
   <path d="M 0 259.2 
L 460.8 259.2 
L 460.8 0 
L 0 0 
L 0 259.2 
z
" style="fill: none"/>
  </g>
  <g id="axes_1">
   <g id="patch_2">
    <path d="M 57.387311 219.76 
L 451.08 219.76 
L 451.08 9.72 
L 57.387311 9.72 
L 57.387311 219.76 
z
" style="fill: none"/>
   </g>
   <g id="matplotlib.axis_1">
    <g id="xtick_1">
     <g id="line2d_1">
      <path d="M 67.978302 219.76 
L 67.978302 9.72 
" clip-path="url(#p145fd88b05)" style="fill: none; stroke: #d7dae0; stroke-width: 0.5; stroke-linecap: square"/>
     </g>
     <g id="line2d_2">
      <defs>
       <path id="mf4023e39e9" d="M 0 0 
L 0 3.5 
" style="stroke: #20242c; stroke-width: 0.8"/>
      </defs>
      <g>
       <use xlink:href="#mf4023e39e9" x="67.978302" y="219.76" style="fill: #20242c; stroke: #20242c; stroke-width: 0.8"/>
      </g>
     </g>
     <g id="text_1">
      <text style="font-size: 9px; font-family: 'DejaVu Sans', 'Bitstream Vera Sans', 'Computer Modern Sans Serif', 'Lucida Grande', 'Verdana', 'Geneva', 'Lucid', 'Arial', 'Helvetica', 'Avant Garde', sans-serif; text-anchor: middle; fill: #20242c" x="67.978302" y="233.598594" transform="rotate(-0 67.978302 233.598594)">0</text>
     </g>
    </g>
    <g id="xtick_2">
     <g id="line2d_3">
      <path d="M 141.019617 219.76 
L 141.019617 9.72 
" clip-path="url(#p145fd88b05)" style="fill: none; stroke: #d7dae0; stroke-width: 0.5; stroke-linecap: square"/>
     </g>
     <g id="line2d_4">
      <g>
       <use xlink:href="#mf4023e39e9" x="141.019617" y="219.76" style="fill: #20242c; stroke: #20242c; stroke-width: 0.8"/>
      </g>
     </g>
     <g id="text_2">
      <text style="font-size: 9px; font-family: 'DejaVu Sans', 'Bitstream Vera Sans', 'Computer Modern Sans Serif', 'Lucida Grande', 'Verdana', 'Geneva', 'Lucid', 'Arial', 'Helvetica', 'Avant Garde', sans-serif; text-anchor: middle; fill: #20242c" x="141.019617" y="233.598594" transform="rotate(-0 141.019617 233.598594)">20</text>
     </g>
    </g>
    <g id="xtick_3">
     <g id="line2d_5">
      <path d="M 214.060932 219.76 
L 214.060932 9.72 
" clip-path="url(#p145fd88b05)" style="fill: none; stroke: #d7dae0; stroke-width: 0.5; stroke-linecap: square"/>
     </g>
     <g id="line2d_6">
      <g>
       <use xlink:href="#mf4023e39e9" x="214.060932" y="219.76" style="fill: #20242c; stroke: #20242c; stroke-width: 0.8"/>
      </g>
     </g>
     <g id="text_3">
      <text style="font-size: 9px; font-family: 'DejaVu Sans', 'Bitstream Vera Sans', 'Computer Modern Sans Serif', 'Lucida Grande', 'Verdana', 'Geneva', 'Lucid', 'Arial', 'Helvetica', 'Avant Garde', sans-serif; text-anchor: middle; fill: #20242c" x="214.060932" y="233.598594" transform="rotate(-0 214.060932 233.598594)">40</text>
     </g>
    </g>
    <g id="xtick_4">
     <g id="line2d_7">
      <path d="M 287.102247 219.76 
L 287.102247 9.72 
" clip-path="url(#p145fd88b05)" style="fill: none; stroke: #d7dae0; stroke-width: 0.5; stroke-linecap: square"/>
     </g>
     <g id="line2d_8">
      <g>
       <use xlink:href="#mf4023e39e9" x="287.102247" y="219.76" style="fill: #20242c; stroke: #20242c; stroke-width: 0.8"/>
      </g>
     </g>
     <g id="text_4">
      <text style="font-size: 9px; font-family: 'DejaVu Sans', 'Bitstream Vera Sans', 'Computer Modern Sans Serif', 'Lucida Grande', 'Verdana', 'Geneva', 'Lucid', 'Arial', 'Helvetica', 'Avant Garde', sans-serif; text-anchor: middle; fill: #20242c" x="287.102247" y="233.598594" transform="rotate(-0 287.102247 233.598594)">60</text>
     </g>
    </g>
    <g id="xtick_5">
     <g id="line2d_9">
      <path d="M 360.143563 219.76 
L 360.143563 9.72 
" clip-path="url(#p145fd88b05)" style="fill: none; stroke: #d7dae0; stroke-width: 0.5; stroke-linecap: square"/>
     </g>
     <g id="line2d_10">
      <g>
       <use xlink:href="#mf4023e39e9" x="360.143563" y="219.76" style="fill: #20242c; stroke: #20242c; stroke-width: 0.8"/>
      </g>
     </g>
     <g id="text_5">
      <text style="font-size: 9px; font-family: 'DejaVu Sans', 'Bitstream Vera Sans', 'Computer Modern Sans Serif', 'Lucida Grande', 'Verdana', 'Geneva', 'Lucid', 'Arial', 'Helvetica', 'Avant Garde', sans-serif; text-anchor: middle; fill: #20242c" x="360.143563" y="233.598594" transform="rotate(-0 360.143563 233.598594)">80</text>
     </g>
    </g>
    <g id="xtick_6">
     <g id="line2d_11">
      <path d="M 433.184878 219.76 
L 433.184878 9.72 
" clip-path="url(#p145fd88b05)" style="fill: none; stroke: #d7dae0; stroke-width: 0.5; stroke-linecap: square"/>
     </g>
     <g id="line2d_12">
      <g>
       <use xlink:href="#mf4023e39e9" x="433.184878" y="219.76" style="fill: #20242c; stroke: #20242c; stroke-width: 0.8"/>
      </g>
     </g>
     <g id="text_6">
      <text style="font-size: 9px; font-family: 'DejaVu Sans', 'Bitstream Vera Sans', 'Computer Modern Sans Serif', 'Lucida Grande', 'Verdana', 'Geneva', 'Lucid', 'Arial', 'Helvetica', 'Avant Garde', sans-serif; text-anchor: middle; fill: #20242c" x="433.184878" y="233.598594" transform="rotate(-0 433.184878 233.598594)">100</text>
     </g>
    </g>
    <g id="text_7">
     <text style="font-size: 9px; font-family: 'DejaVu Sans', 'Bitstream Vera Sans', 'Computer Modern Sans Serif', 'Lucida Grande', 'Verdana', 'Geneva', 'Lucid', 'Arial', 'Helvetica', 'Avant Garde', sans-serif; text-anchor: middle; fill: #20242c" x="254.233656" y="246.308906" transform="rotate(-0 254.233656 246.308906)">degree</text>
    </g>
   </g>
   <g id="matplotlib.axis_2">
    <g id="ytick_1">
     <g id="line2d_13">
      <path d="M 57.387311 198.682571 
L 451.08 198.682571 
" clip-path="url(#p145fd88b05)" style="fill: none; stroke: #d7dae0; stroke-width: 0.5; stroke-linecap: square"/>
     </g>
     <g id="line2d_14">
      <defs>
       <path id="mdad4d5e3da" d="M 0 0 
L -3.5 0 
" style="stroke: #20242c; stroke-width: 0.8"/>
      </defs>
      <g>
       <use xlink:href="#mdad4d5e3da" x="57.387311" y="198.682571" style="fill: #20242c; stroke: #20242c; stroke-width: 0.8"/>
      </g>
     </g>
     <g id="text_8">
      <!-- $\mathdefault{10^{-10}}$ -->
      <g style="fill: #20242c" transform="translate(25.277311 202.101868)">
       <text>
        <tspan x="0" y="-0.873438" style="font-size: 9px; font-family: 'DejaVu Sans'; fill: #20242c">1</tspan>
        <tspan x="5.726074" y="-0.873438" style="font-size: 9px; font-family: 'DejaVu Sans'; fill: #20242c">0</tspan>
        <tspan x="11.538281" y="-4.31875" style="font-size: 6.3px; font-family: 'DejaVu Sans'; fill: #20242c">−</tspan>
        <tspan x="16.816992" y="-4.31875" style="font-size: 6.3px; font-family: 'DejaVu Sans'; fill: #20242c">1</tspan>
        <tspan x="20.825244" y="-4.31875" style="font-size: 6.3px; font-family: 'DejaVu Sans'; fill: #20242c">0</tspan>
       </text>
      </g>
     </g>
    </g>
    <g id="ytick_2">
     <g id="line2d_15">
      <path d="M 57.387311 162.634657 
L 451.08 162.634657 
" clip-path="url(#p145fd88b05)" style="fill: none; stroke: #d7dae0; stroke-width: 0.5; stroke-linecap: square"/>
     </g>
     <g id="line2d_16">
      <g>
       <use xlink:href="#mdad4d5e3da" x="57.387311" y="162.634657" style="fill: #20242c; stroke: #20242c; stroke-width: 0.8"/>
      </g>
     </g>
     <g id="text_9">
      <!-- $\mathdefault{10^{-8}}$ -->
      <g style="fill: #20242c" transform="translate(29.237311 166.053954)">
       <text>
        <tspan x="0" y="-0.873438" style="font-size: 9px; font-family: 'DejaVu Sans'; fill: #20242c">1</tspan>
        <tspan x="5.726074" y="-0.873438" style="font-size: 9px; font-family: 'DejaVu Sans'; fill: #20242c">0</tspan>
        <tspan x="11.538281" y="-4.31875" style="font-size: 6.3px; font-family: 'DejaVu Sans'; fill: #20242c">−</tspan>
        <tspan x="16.816992" y="-4.31875" style="font-size: 6.3px; font-family: 'DejaVu Sans'; fill: #20242c">8</tspan>
       </text>
      </g>
     </g>
    </g>
    <g id="ytick_3">
     <g id="line2d_17">
      <path d="M 57.387311 126.586744 
L 451.08 126.586744 
" clip-path="url(#p145fd88b05)" style="fill: none; stroke: #d7dae0; stroke-width: 0.5; stroke-linecap: square"/>
     </g>
     <g id="line2d_18">
      <g>
       <use xlink:href="#mdad4d5e3da" x="57.387311" y="126.586744" style="fill: #20242c; stroke: #20242c; stroke-width: 0.8"/>
      </g>
     </g>
     <g id="text_10">
      <!-- $\mathdefault{10^{-6}}$ -->
      <g style="fill: #20242c" transform="translate(29.237311 130.006041)">
       <text>
        <tspan x="0" y="-0.873438" style="font-size: 9px; font-family: 'DejaVu Sans'; fill: #20242c">1</tspan>
        <tspan x="5.726074" y="-0.873438" style="font-size: 9px; font-family: 'DejaVu Sans'; fill: #20242c">0</tspan>
        <tspan x="11.538281" y="-4.31875" style="font-size: 6.3px; font-family: 'DejaVu Sans'; fill: #20242c">−</tspan>
        <tspan x="16.816992" y="-4.31875" style="font-size: 6.3px; font-family: 'DejaVu Sans'; fill: #20242c">6</tspan>
       </text>
      </g>
     </g>
    </g>
    <g id="ytick_4">
     <g id="line2d_19">
      <path d="M 57.387311 90.53883 
L 451.08 90.53883 
" clip-path="url(#p145fd88b05)" style="fill: none; stroke: #d7dae0; stroke-width: 0.5; stroke-linecap: square"/>
     </g>
     <g id="line2d_20">
      <g>
       <use xlink:href="#mdad4d5e3da" x="57.387311" y="90.53883" style="fill: #20242c; stroke: #20242c; stroke-width: 0.8"/>
      </g>
     </g>
     <g id="text_11">
      <!-- $\mathdefault{10^{-4}}$ -->
      <g style="fill: #20242c" transform="translate(29.237311 93.958127)">
       <text>
        <tspan x="0" y="-0.960938" style="font-size: 9px; font-family: 'DejaVu Sans'; fill: #20242c">1</tspan>
        <tspan x="5.726074" y="-0.960938" style="font-size: 9px; font-family: 'DejaVu Sans'; fill: #20242c">0</tspan>
        <tspan x="11.538281" y="-4.40625" style="font-size: 6.3px; font-family: 'DejaVu Sans'; fill: #20242c">−</tspan>
        <tspan x="16.816992" y="-4.40625" style="font-size: 6.3px; font-family: 'DejaVu Sans'; fill: #20242c">4</tspan>
       </text>
      </g>
     </g>
    </g>
    <g id="ytick_5">
     <g id="line2d_21">
      <path d="M 57.387311 54.490917 
L 451.08 54.490917 
" clip-path="url(#p145fd88b05)" style="fill: none; stroke: #d7dae0; stroke-width: 0.5; stroke-linecap: square"/>
     </g>
     <g id="line2d_22">
      <g>
       <use xlink:href="#mdad4d5e3da" x="57.387311" y="54.490917" style="fill: #20242c; stroke: #20242c; stroke-width: 0.8"/>
      </g>
     </g>
     <g id="text_12">
      <!-- $\mathdefault{10^{-2}}$ -->
      <g style="fill: #20242c" transform="translate(29.237311 57.910213)">
       <text>
        <tspan x="0" y="-0.873438" style="font-size: 9px; font-family: 'DejaVu Sans'; fill: #20242c">1</tspan>
        <tspan x="5.726074" y="-0.873438" style="font-size: 9px; font-family: 'DejaVu Sans'; fill: #20242c">0</tspan>
        <tspan x="11.538281" y="-4.31875" style="font-size: 6.3px; font-family: 'DejaVu Sans'; fill: #20242c">−</tspan>
        <tspan x="16.816992" y="-4.31875" style="font-size: 6.3px; font-family: 'DejaVu Sans'; fill: #20242c">2</tspan>
       </text>
      </g>
     </g>
    </g>
    <g id="ytick_6">
     <g id="line2d_23">
      <path d="M 57.387311 18.443003 
L 451.08 18.443003 
" clip-path="url(#p145fd88b05)" style="fill: none; stroke: #d7dae0; stroke-width: 0.5; stroke-linecap: square"/>
     </g>
     <g id="line2d_24">
      <g>
       <use xlink:href="#mdad4d5e3da" x="57.387311" y="18.443003" style="fill: #20242c; stroke: #20242c; stroke-width: 0.8"/>
      </g>
     </g>
     <g id="text_13">
      <!-- $\mathdefault{10^{0}}$ -->
      <g style="fill: #20242c" transform="translate(34.547311 21.8623)">
       <text>
        <tspan x="0" y="-0.873438" style="font-size: 9px; font-family: 'DejaVu Sans'; fill: #20242c">1</tspan>
        <tspan x="5.726074" y="-0.873438" style="font-size: 9px; font-family: 'DejaVu Sans'; fill: #20242c">0</tspan>
        <tspan x="11.538281" y="-4.31875" style="font-size: 6.3px; font-family: 'DejaVu Sans'; fill: #20242c">0</tspan>
       </text>
      </g>
     </g>
    </g>
    <g id="text_14">
     <!-- max error on $[-1, 1]$ -->
     <g style="fill: #20242c" transform="translate(19.405593 160.865) rotate(-90)">
      <text>
       <tspan x="0" y="-0.15625" style="font-size: 9px; font-family: 'DejaVu Sans'; fill: #20242c">m</tspan>
       <tspan x="8.76709" y="-0.15625" style="font-size: 9px; font-family: 'DejaVu Sans'; fill: #20242c">a</tspan>
       <tspan x="14.282227" y="-0.15625" style="font-size: 9px; font-family: 'DejaVu Sans'; fill: #20242c">x</tspan>
       <tspan x="19.608398" y="-0.15625" style="font-size: 9px; font-family: 'DejaVu Sans'; fill: #20242c"> </tspan>
       <tspan x="22.469238" y="-0.15625" style="font-size: 9px; font-family: 'DejaVu Sans'; fill: #20242c">e</tspan>
       <tspan x="28.006348" y="-0.15625" style="font-size: 9px; font-family: 'DejaVu Sans'; fill: #20242c">r</tspan>
       <tspan x="31.706543" y="-0.15625" style="font-size: 9px; font-family: 'DejaVu Sans'; fill: #20242c">r</tspan>
       <tspan x="35.406738" y="-0.15625" style="font-size: 9px; font-family: 'DejaVu Sans'; fill: #20242c">o</tspan>
       <tspan x="40.913086" y="-0.15625" style="font-size: 9px; font-family: 'DejaVu Sans'; fill: #20242c">r</tspan>
       <tspan x="44.613281" y="-0.15625" style="font-size: 9px; font-family: 'DejaVu Sans'; fill: #20242c"> </tspan>
       <tspan x="47.474121" y="-0.15625" style="font-size: 9px; font-family: 'DejaVu Sans'; fill: #20242c">o</tspan>
       <tspan x="52.980469" y="-0.15625" style="font-size: 9px; font-family: 'DejaVu Sans'; fill: #20242c">n</tspan>
       <tspan x="58.68457" y="-0.15625" style="font-size: 9px; font-family: 'DejaVu Sans'; fill: #20242c"> </tspan>
       <tspan x="61.54541" y="-0.15625" style="font-size: 9px; font-family: 'DejaVu Sans'; fill: #20242c">[</tspan>
       <tspan x="65.056641" y="-0.15625" style="font-size: 9px; font-family: 'DejaVu Sans'; fill: #20242c">−</tspan>
       <tspan x="72.597656" y="-0.15625" style="font-size: 9px; font-family: 'DejaVu Sans'; fill: #20242c">1</tspan>
       <tspan x="78.32373" y="-0.15625" style="font-size: 9px; font-family: 'DejaVu Sans'; fill: #20242c">,</tspan>
       <tspan x="82.937988" y="-0.15625" style="font-size: 9px; font-family: 'DejaVu Sans'; fill: #20242c">1</tspan>
       <tspan x="88.664062" y="-0.15625" style="font-size: 9px; font-family: 'DejaVu Sans'; fill: #20242c">]</tspan>
      </text>
     </g>
    </g>
   </g>
   <g id="line2d_25">
    <path d="M 75.282434 19.267273 
L 82.586565 21.724309 
L 89.890697 22.609488 
L 97.194828 23.585138 
L 104.49896 24.639906 
L 111.803091 25.931562 
L 119.107223 27.641176 
L 126.411354 28.687268 
L 133.715486 29.539251 
L 141.019617 30.662122 
L 148.323749 31.96289 
L 155.62788 33.625384 
L 162.932012 34.846893 
L 170.236143 35.682302 
L 177.540275 36.808753 
L 184.844406 38.102803 
L 192.148538 39.757618 
L 199.452669 41.130772 
L 206.756801 41.976553 
L 214.060932 43.077785 
L 221.365064 44.340185 
L 228.669195 45.982662 
L 235.973327 47.482733 
L 243.277458 48.360397 
L 250.58159 49.389664 
L 257.885721 50.643272 
L 265.189853 52.260788 
L 272.493984 53.84228 
L 279.798116 54.793309 
L 287.102247 55.761637 
L 294.406379 56.98698 
L 301.710511 58.569824 
L 309.014642 60.192372 
L 316.318774 61.252427 
L 323.622905 62.175472 
L 330.927037 63.362855 
L 338.231168 64.897799 
L 345.5353 66.551875 
L 352.839431 67.72468 
L 360.143563 68.62022 
L 367.447694 69.762325 
L 374.751826 71.240834 
L 382.055957 72.915549 
L 389.360089 74.197635 
L 396.66422 75.087471 
L 403.968352 76.183992 
L 411.272483 77.598462 
L 418.576615 79.273834 
L 425.880746 80.663086 
L 433.184878 81.572727 
" clip-path="url(#p145fd88b05)" style="fill: none; stroke: #0072b2; stroke-width: 1.6; stroke-linecap: square"/>
   </g>
   <g id="line2d_26">
    <path d="M 75.282434 20.175203 
L 82.586565 22.892911 
L 89.890697 24.372865 
L 97.194828 25.525355 
L 104.49896 27.275295 
L 111.803091 29.758584 
L 119.107223 32.254108 
L 126.411354 33.878216 
L 133.715486 35.08277 
L 141.019617 36.855234 
L 148.323749 39.358468 
L 155.62788 41.780772 
L 162.932012 43.316403 
L 170.236143 44.628606 
L 177.540275 46.616204 
L 184.844406 49.220418 
L 192.148538 51.471479 
L 199.452669 52.867849 
L 206.756801 54.334332 
L 214.060932 56.556949 
L 221.365064 59.187504 
L 228.669195 61.179049 
L 235.973327 62.491049 
L 243.277458 64.165483 
L 250.58159 66.597311 
L 257.885721 69.142801 
L 265.189853 70.852595 
L 272.493984 72.178698 
L 279.798116 74.098685 
L 287.102247 76.680029 
L 294.406379 79.025513 
L 301.710511 80.496874 
L 309.014642 81.943086 
L 316.318774 84.11954 
L 323.622905 86.753186 
L 330.927037 88.812173 
L 338.231168 90.149502 
L 345.5353 91.796146 
L 352.839431 94.200237 
L 360.143563 96.765181 
L 367.447694 98.516033 
L 374.751826 99.849081 
L 382.055957 101.738466 
L 389.360089 104.306441 
L 396.66422 106.681908 
L 403.968352 108.177632 
L 411.272483 109.614836 
L 418.576615 111.763791 
L 425.880746 114.402319 
L 433.184878 116.483338 
" clip-path="url(#p145fd88b05)" style="fill: none; stroke: #d55e00; stroke-width: 1.6; stroke-linecap: square"/>
   </g>
   <g id="line2d_27">
    <path d="M 75.282434 20.911716 
L 82.586565 24.337198 
L 89.890697 28.032504 
L 97.194828 31.990334 
L 104.49896 36.084984 
L 111.803091 40.155364 
L 119.107223 43.78289 
L 126.411354 47.186316 
L 133.715486 50.579957 
L 141.019617 54.020298 
L 148.323749 57.554501 
L 155.62788 61.214512 
L 162.932012 65.016815 
L 170.236143 68.815472 
L 177.540275 72.772765 
L 184.844406 76.88431 
L 192.148538 80.859385 
L 199.452669 85.013343 
L 206.756801 89.610341 
L 214.060932 93.885341 
L 221.365064 97.823513 
L 228.669195 101.430241 
L 235.973327 104.910081 
L 243.277458 108.360136 
L 250.58159 111.856591 
L 257.885721 115.457678 
L 265.189853 119.182578 
L 272.493984 123.011041 
L 279.798116 126.957566 
L 287.102247 130.474488 
L 294.406379 134.247366 
L 301.710511 138.406025 
L 309.014642 142.977938 
L 316.318774 148.041737 
L 323.622905 152.096674 
L 330.927037 155.830124 
L 338.231168 159.363508 
L 345.5353 162.82961 
L 352.839431 166.294825 
L 360.143563 169.837926 
L 367.447694 173.503671 
L 374.751826 177.290907 
L 382.055957 181.201511 
L 389.360089 185.241553 
L 396.66422 189.314857 
L 403.968352 193.425063 
L 411.272483 197.929261 
L 418.576615 202.2504 
L 425.880746 206.351255 
L 433.184878 210.212727 
" clip-path="url(#p145fd88b05)" style="fill: none; stroke: #009e73; stroke-width: 1.6; stroke-linecap: square"/>
   </g>
   <g id="line2d_28">
    <path d="M 57.387311 72.514873 
L 451.08 72.514873 
" clip-path="url(#p145fd88b05)" style="fill: none; stroke-dasharray: 0.8,1.32; stroke-dashoffset: 0; stroke: #888888; stroke-width: 0.8"/>
   </g>
   <g id="patch_3">
    <path d="M 57.387311 219.76 
L 57.387311 9.72 
" style="fill: none; stroke: #20242c; stroke-width: 0.8; stroke-linejoin: miter; stroke-linecap: square"/>
   </g>
   <g id="patch_4">
    <path d="M 57.387311 219.76 
L 451.08 219.76 
" style="fill: none; stroke: #20242c; stroke-width: 0.8; stroke-linejoin: miter; stroke-linecap: square"/>
   </g>
   <g id="text_15">
    <text style="font-size: 8px; font-family: 'DejaVu Sans', 'Bitstream Vera Sans', 'Computer Modern Sans Serif', 'Lucida Grande', 'Verdana', 'Geneva', 'Lucid', 'Arial', 'Helvetica', 'Avant Garde', sans-serif; text-anchor: start; fill: #888888" x="82.586565" y="70.461163" transform="rotate(-0 82.586565 70.461163)">1e-3</text>
   </g>
   <g id="legend_1">
    <g id="line2d_29">
     <path d="M 64.587311 184.61125 
L 72.587311 184.61125 
L 80.587311 184.61125 
" style="fill: none; stroke: #0072b2; stroke-width: 1.6; stroke-linecap: square"/>
    </g>
    <g id="text_16">
     <text style="font-size: 8px; font-family: 'DejaVu Sans', 'Bitstream Vera Sans', 'Computer Modern Sans Serif', 'Lucida Grande', 'Verdana', 'Geneva', 'Lucid', 'Arial', 'Helvetica', 'Avant Garde', sans-serif; text-anchor: start; fill: #20242c" x="86.987311" y="187.41125" transform="rotate(-0 86.987311 187.41125)">identity</text>
    </g>
    <g id="line2d_30">
     <path d="M 64.587311 196.35375 
L 72.587311 196.35375 
L 80.587311 196.35375 
" style="fill: none; stroke: #d55e00; stroke-width: 1.6; stroke-linecap: square"/>
    </g>
    <g id="text_17">
     <text style="font-size: 8px; font-family: 'DejaVu Sans', 'Bitstream Vera Sans', 'Computer Modern Sans Serif', 'Lucida Grande', 'Verdana', 'Geneva', 'Lucid', 'Arial', 'Helvetica', 'Avant Garde', sans-serif; text-anchor: start; fill: #20242c" x="86.987311" y="199.15375" transform="rotate(-0 86.987311 199.15375)">sinh(10, centre 0.5), best the scan offers</text>
    </g>
    <g id="line2d_31">
     <path d="M 64.587311 208.09625 
L 72.587311 208.09625 
L 80.587311 208.09625 
" style="fill: none; stroke: #009e73; stroke-width: 1.6; stroke-linecap: square"/>
    </g>
    <g id="text_18">
     <text style="font-size: 8px; font-family: 'DejaVu Sans', 'Bitstream Vera Sans', 'Computer Modern Sans Serif', 'Lucida Grande', 'Verdana', 'Geneva', 'Lucid', 'Arial', 'Helvetica', 'Avant Garde', sans-serif; text-anchor: start; fill: #20242c" x="86.987311" y="210.89625" transform="rotate(-0 86.987311 210.89625)">sinh(8, centre 0.3), placed by hand</text>
    </g>
   </g>
  </g>
 </g>
 <defs>
  <clipPath id="p145fd88b05">
   <rect x="57.387311" y="9.72" width="393.692689" height="210.04"/>
  </clipPath>
 </defs>
</svg>
